<svg width="1024" height="753" viewBox="0 0 1024 753" fill="none" xmlns="http://www.w3.org/2000/svg">
<g clip-path="url(#clip0_122_130)">
<rect width="1024" height="753" fill="#121214"/>
<g opacity="0.2" filter="url(#filter0_f_122_130)">
<ellipse cx="443.5" cy="34" rx="670.5" ry="350" fill="#338AF3"/>
</g>
<path d="M-35.9651 270C-34.4698 270 -33.3378 270.63 -32.5692 271.891C-31.7866 273.138 -31.3953 274.953 -31.3953 277.336C-31.3953 279.719 -31.7866 281.541 -32.5692 282.802C-33.3378 284.063 -34.4698 284.693 -35.9651 284.693C-37.4464 284.693 -38.5784 284.063 -39.361 282.802C-40.1436 281.541 -40.5349 279.719 -40.5349 277.336C-40.5349 274.967 -40.1436 273.152 -39.361 271.891C-38.5784 270.63 -37.4464 270 -35.9651 270ZM-39.0466 277.336C-39.0466 279.026 -38.8928 280.35 -38.5854 281.306L-33.9317 272.099C-34.4209 271.448 -35.0987 271.122 -35.9651 271.122C-36.9294 271.122 -37.684 271.635 -38.229 272.66C-38.7741 273.672 -39.0466 275.23 -39.0466 277.336ZM-35.9651 283.55C-34.9869 283.55 -34.2252 283.044 -33.6802 282.033C-33.1352 281.008 -32.8627 279.442 -32.8627 277.336C-32.8627 275.549 -33.0373 274.163 -33.3867 273.18L-38.0404 282.469C-37.5373 283.19 -36.8455 283.55 -35.9651 283.55Z" fill="url(#paint0_linear_122_130)" fill-opacity="0.6"/>
<path d="M-34.7074 307.135H-31.6259V308.236H-39.6126V307.135H-36.0489V295.455L-39.4449 297.471L-40.0318 296.536L-35.8393 293.959H-34.7074V307.135Z" fill="url(#paint1_linear_122_130)" fill-opacity="0.6"/>
<path d="M-35.9651 317.502C-34.4698 317.502 -33.3378 318.133 -32.5692 319.393C-31.7866 320.64 -31.3953 322.455 -31.3953 324.838C-31.3953 327.221 -31.7866 329.043 -32.5692 330.304C-33.3378 331.565 -34.4698 332.195 -35.9651 332.195C-37.4464 332.195 -38.5784 331.565 -39.361 330.304C-40.1436 329.043 -40.5349 327.221 -40.5349 324.838C-40.5349 322.469 -40.1436 320.654 -39.361 319.393C-38.5784 318.133 -37.4464 317.502 -35.9651 317.502ZM-39.0466 324.838C-39.0466 326.529 -38.8928 327.852 -38.5854 328.808L-33.9317 319.601C-34.4209 318.95 -35.0987 318.624 -35.9651 318.624C-36.9294 318.624 -37.684 319.137 -38.229 320.162C-38.7741 321.174 -39.0466 322.732 -39.0466 324.838ZM-35.9651 331.052C-34.9869 331.052 -34.2252 330.546 -33.6802 329.535C-33.1352 328.51 -32.8627 326.944 -32.8627 324.838C-32.8627 323.051 -33.0373 321.665 -33.3867 320.682L-38.0404 329.971C-37.5373 330.692 -36.8455 331.052 -35.9651 331.052Z" fill="url(#paint2_linear_122_130)" fill-opacity="0.6"/>
<path d="M-34.7074 354.637H-31.6259V355.738H-39.6126V354.637H-36.0489V342.957L-39.4449 344.973L-40.0318 344.038L-35.8393 341.461H-34.7074V354.637Z" fill="url(#paint3_linear_122_130)" fill-opacity="0.6"/>
<path d="M-34.7074 378.388H-31.6259V379.489H-39.6126V378.388H-36.0489V366.708L-39.4449 368.724L-40.0318 367.789L-35.8393 365.212H-34.7074V378.388Z" fill="url(#paint4_linear_122_130)" fill-opacity="0.6"/>
<path d="M-35.9651 388.755C-34.4698 388.755 -33.3378 389.386 -32.5692 390.646C-31.7866 391.893 -31.3953 393.708 -31.3953 396.091C-31.3953 398.474 -31.7866 400.296 -32.5692 401.557C-33.3378 402.818 -34.4698 403.448 -35.9651 403.448C-37.4464 403.448 -38.5784 402.818 -39.361 401.557C-40.1436 400.296 -40.5349 398.474 -40.5349 396.091C-40.5349 393.722 -40.1436 391.907 -39.361 390.646C-38.5784 389.386 -37.4464 388.755 -35.9651 388.755ZM-39.0466 396.091C-39.0466 397.782 -38.8928 399.105 -38.5854 400.061L-33.9317 390.854C-34.4209 390.203 -35.0987 389.878 -35.9651 389.878C-36.9294 389.878 -37.684 390.39 -38.229 391.415C-38.7741 392.427 -39.0466 393.985 -39.0466 396.091ZM-35.9651 402.305C-34.9869 402.305 -34.2252 401.8 -33.6802 400.788C-33.1352 399.763 -32.8627 398.197 -32.8627 396.091C-32.8627 394.304 -33.0373 392.919 -33.3867 391.935L-38.0404 401.225C-37.5373 401.945 -36.8455 402.305 -35.9651 402.305Z" fill="url(#paint5_linear_122_130)" fill-opacity="0.6"/>
<path d="M-34.7074 425.89H-31.6259V426.992H-39.6126V425.89H-36.0489V414.21L-39.4449 416.226L-40.0318 415.291L-35.8393 412.714H-34.7074V425.89Z" fill="url(#paint6_linear_122_130)" fill-opacity="0.6"/>
<path d="M-35.9651 436.257C-34.4698 436.257 -33.3378 436.888 -32.5692 438.149C-31.7866 439.396 -31.3953 441.211 -31.3953 443.594C-31.3953 445.977 -31.7866 447.798 -32.5692 449.059C-33.3378 450.32 -34.4698 450.95 -35.9651 450.95C-37.4464 450.95 -38.5784 450.32 -39.361 449.059C-40.1436 447.798 -40.5349 445.977 -40.5349 443.594C-40.5349 441.224 -40.1436 439.409 -39.361 438.149C-38.5784 436.888 -37.4464 436.257 -35.9651 436.257ZM-39.0466 443.594C-39.0466 445.284 -38.8928 446.607 -38.5854 447.563L-33.9317 438.356C-34.4209 437.705 -35.0987 437.38 -35.9651 437.38C-36.9294 437.38 -37.684 437.892 -38.229 438.918C-38.7741 439.929 -39.0466 441.488 -39.0466 443.594ZM-35.9651 449.807C-34.9869 449.807 -34.2252 449.302 -33.6802 448.29C-33.1352 447.265 -32.8627 445.699 -32.8627 443.594C-32.8627 441.806 -33.0373 440.421 -33.3867 439.437L-38.0404 448.727C-37.5373 449.447 -36.8455 449.807 -35.9651 449.807Z" fill="url(#paint7_linear_122_130)" fill-opacity="0.6"/>
<path d="M-35.9651 460.008C-34.4698 460.008 -33.3378 460.639 -32.5692 461.9C-31.7866 463.147 -31.3953 464.962 -31.3953 467.345C-31.3953 469.728 -31.7866 471.549 -32.5692 472.81C-33.3378 474.071 -34.4698 474.701 -35.9651 474.701C-37.4464 474.701 -38.5784 474.071 -39.361 472.81C-40.1436 471.549 -40.5349 469.728 -40.5349 467.345C-40.5349 464.975 -40.1436 463.16 -39.361 461.9C-38.5784 460.639 -37.4464 460.008 -35.9651 460.008ZM-39.0466 467.345C-39.0466 469.035 -38.8928 470.358 -38.5854 471.314L-33.9317 462.107C-34.4209 461.456 -35.0987 461.131 -35.9651 461.131C-36.9294 461.131 -37.684 461.643 -38.229 462.669C-38.7741 463.68 -39.0466 465.239 -39.0466 467.345ZM-35.9651 473.558C-34.9869 473.558 -34.2252 473.053 -33.6802 472.041C-33.1352 471.016 -32.8627 469.451 -32.8627 467.345C-32.8627 465.557 -33.0373 464.172 -33.3867 463.188L-38.0404 472.478C-37.5373 473.198 -36.8455 473.558 -35.9651 473.558Z" fill="url(#paint8_linear_122_130)" fill-opacity="0.6"/>
<path d="M-34.7074 497.143H-31.6259V498.245H-39.6126V497.143H-36.0489V485.464L-39.4449 487.48L-40.0318 486.544L-35.8393 483.967H-34.7074V497.143Z" fill="url(#paint9_linear_122_130)" fill-opacity="0.6"/>
<path d="M-35.9651 507.511C-34.4698 507.511 -33.3378 508.141 -32.5692 509.402C-31.7866 510.649 -31.3953 512.464 -31.3953 514.847C-31.3953 517.23 -31.7866 519.052 -32.5692 520.312C-33.3378 521.573 -34.4698 522.204 -35.9651 522.204C-37.4464 522.204 -38.5784 521.573 -39.361 520.312C-40.1436 519.052 -40.5349 517.23 -40.5349 514.847C-40.5349 512.478 -40.1436 510.663 -39.361 509.402C-38.5784 508.141 -37.4464 507.511 -35.9651 507.511ZM-39.0466 514.847C-39.0466 516.537 -38.8928 517.86 -38.5854 518.816L-33.9317 509.61C-34.4209 508.958 -35.0987 508.633 -35.9651 508.633C-36.9294 508.633 -37.684 509.145 -38.229 510.171C-38.7741 511.182 -39.0466 512.741 -39.0466 514.847ZM-35.9651 521.061C-34.9869 521.061 -34.2252 520.555 -33.6802 519.543C-33.1352 518.518 -32.8627 516.953 -32.8627 514.847C-32.8627 513.059 -33.0373 511.674 -33.3867 510.69L-38.0404 519.98C-37.5373 520.7 -36.8455 521.061 -35.9651 521.061Z" fill="url(#paint10_linear_122_130)" fill-opacity="0.6"/>
<path d="M-34.7074 544.645H-31.6259V545.747H-39.6126V544.645H-36.0489V532.966L-39.4449 534.982L-40.0318 534.046L-35.8393 531.469H-34.7074V544.645Z" fill="url(#paint11_linear_122_130)" fill-opacity="0.6"/>
<path d="M-34.7074 568.396H-31.6259V569.498H-39.6126V568.396H-36.0489V556.717L-39.4449 558.733L-40.0318 557.798L-35.8393 555.221H-34.7074V568.396Z" fill="url(#paint12_linear_122_130)" fill-opacity="0.6"/>
<path d="M2.9651 317.502C4.46042 317.502 5.59239 318.133 6.36101 319.393C7.14361 320.64 7.5349 322.455 7.5349 324.838C7.5349 327.221 7.14361 329.043 6.36101 330.304C5.59239 331.565 4.46042 332.195 2.9651 332.195C1.48376 332.195 0.351782 331.565 -0.430815 330.304C-1.21341 329.043 -1.60471 327.221 -1.60471 324.838C-1.60471 322.469 -1.21341 320.654 -0.430815 319.393C0.351782 318.133 1.48376 317.502 2.9651 317.502ZM-0.116379 324.838C-0.116379 326.529 0.0373518 327.852 0.344801 328.808L4.99845 319.601C4.50933 318.95 3.83155 318.624 2.9651 318.624C2.00083 318.624 1.24618 319.137 0.701155 320.162C0.156133 321.174 -0.116379 322.732 -0.116379 324.838ZM2.9651 331.052C3.94335 331.052 4.70497 330.546 5.25 329.535C5.79502 328.51 6.06754 326.944 6.06754 324.838C6.06754 323.051 5.89284 321.665 5.54347 320.682L0.889819 329.971C1.39292 330.692 2.08468 331.052 2.9651 331.052Z" fill="url(#paint13_linear_122_130)" fill-opacity="0.6"/>
<path d="M4.22284 354.637H7.30432V355.738H-0.682359V354.637H2.88125V342.957L-0.514663 344.973L-1.10161 344.038L3.09087 341.461H4.22284V354.637Z" fill="url(#paint14_linear_122_130)" fill-opacity="0.6"/>
<path d="M2.9651 365.004C4.46042 365.004 5.59239 365.635 6.36101 366.895C7.14361 368.142 7.5349 369.957 7.5349 372.34C7.5349 374.723 7.14361 376.545 6.36101 377.806C5.59239 379.067 4.46042 379.697 2.9651 379.697C1.48376 379.697 0.351782 379.067 -0.430815 377.806C-1.21341 376.545 -1.60471 374.723 -1.60471 372.34C-1.60471 369.971 -1.21341 368.156 -0.430815 366.895C0.351782 365.635 1.48376 365.004 2.9651 365.004ZM-0.116379 372.34C-0.116379 374.031 0.0373518 375.354 0.344801 376.31L4.99845 367.103C4.50933 366.452 3.83155 366.126 2.9651 366.126C2.00083 366.126 1.24618 366.639 0.701155 367.664C0.156133 368.676 -0.116379 370.234 -0.116379 372.34ZM2.9651 378.554C3.94335 378.554 4.70497 378.049 5.25 377.037C5.79502 376.012 6.06754 374.446 6.06754 372.34C6.06754 370.553 5.89284 369.168 5.54347 368.184L0.889819 377.474C1.39292 378.194 2.08468 378.554 2.9651 378.554Z" fill="url(#paint15_linear_122_130)" fill-opacity="0.6"/>
<path d="M2.9651 388.755C4.46042 388.755 5.59239 389.386 6.36101 390.646C7.14361 391.893 7.5349 393.708 7.5349 396.091C7.5349 398.474 7.14361 400.296 6.36101 401.557C5.59239 402.818 4.46042 403.448 2.9651 403.448C1.48376 403.448 0.351782 402.818 -0.430815 401.557C-1.21341 400.296 -1.60471 398.474 -1.60471 396.091C-1.60471 393.722 -1.21341 391.907 -0.430815 390.646C0.351782 389.386 1.48376 388.755 2.9651 388.755ZM-0.116379 396.091C-0.116379 397.782 0.0373518 399.105 0.344801 400.061L4.99845 390.854C4.50933 390.203 3.83155 389.878 2.9651 389.878C2.00083 389.878 1.24618 390.39 0.701155 391.415C0.156133 392.427 -0.116379 393.985 -0.116379 396.091ZM2.9651 402.305C3.94335 402.305 4.70497 401.8 5.25 400.788C5.79502 399.763 6.06754 398.197 6.06754 396.091C6.06754 394.304 5.89284 392.919 5.54347 391.935L0.889819 401.225C1.39292 401.945 2.08468 402.305 2.9651 402.305Z" fill="url(#paint16_linear_122_130)" fill-opacity="0.6"/>
<path d="M4.22284 425.89H7.30432V426.992H-0.682359V425.89H2.88125V414.21L-0.514663 416.226L-1.10161 415.291L3.09087 412.714H4.22284V425.89Z" fill="url(#paint17_linear_122_130)" fill-opacity="0.6"/>
<path d="M2.9651 436.257C4.46042 436.257 5.59239 436.888 6.36101 438.149C7.14361 439.396 7.5349 441.211 7.5349 443.594C7.5349 445.977 7.14361 447.798 6.36101 449.059C5.59239 450.32 4.46042 450.95 2.9651 450.95C1.48376 450.95 0.351782 450.32 -0.430815 449.059C-1.21341 447.798 -1.60471 445.977 -1.60471 443.594C-1.60471 441.224 -1.21341 439.409 -0.430815 438.149C0.351782 436.888 1.48376 436.257 2.9651 436.257ZM-0.116379 443.594C-0.116379 445.284 0.0373518 446.607 0.344801 447.563L4.99845 438.356C4.50933 437.705 3.83155 437.38 2.9651 437.38C2.00083 437.38 1.24618 437.892 0.701155 438.918C0.156133 439.929 -0.116379 441.488 -0.116379 443.594ZM2.9651 449.807C3.94335 449.807 4.70497 449.302 5.25 448.29C5.79502 447.265 6.06754 445.699 6.06754 443.594C6.06754 441.806 5.89284 440.421 5.54347 439.437L0.889819 448.727C1.39292 449.447 2.08468 449.807 2.9651 449.807Z" fill="url(#paint18_linear_122_130)" fill-opacity="0.6"/>
<path d="M4.22284 473.392H7.30432V474.494H-0.682359V473.392H2.88125V461.713L-0.514663 463.728L-1.10161 462.793L3.09087 460.216H4.22284V473.392Z" fill="url(#paint19_linear_122_130)" fill-opacity="0.6"/>
<path d="M2.9651 483.76C4.46042 483.76 5.59239 484.39 6.36101 485.651C7.14361 486.898 7.5349 488.713 7.5349 491.096C7.5349 493.479 7.14361 495.301 6.36101 496.561C5.59239 497.822 4.46042 498.453 2.9651 498.453C1.48376 498.453 0.351782 497.822 -0.430815 496.561C-1.21341 495.301 -1.60471 493.479 -1.60471 491.096C-1.60471 488.726 -1.21341 486.911 -0.430815 485.651C0.351782 484.39 1.48376 483.76 2.9651 483.76ZM-0.116379 491.096C-0.116379 492.786 0.0373518 494.109 0.344801 495.065L4.99845 485.859C4.50933 485.207 3.83155 484.882 2.9651 484.882C2.00083 484.882 1.24618 485.394 0.701155 486.42C0.156133 487.431 -0.116379 488.99 -0.116379 491.096ZM2.9651 497.31C3.94335 497.31 4.70497 496.804 5.25 495.792C5.79502 494.767 6.06754 493.202 6.06754 491.096C6.06754 489.308 5.89284 487.923 5.54347 486.939L0.889819 496.229C1.39292 496.949 2.08468 497.31 2.9651 497.31Z" fill="url(#paint20_linear_122_130)" fill-opacity="0.6"/>
<path d="M2.9651 507.511C4.46042 507.511 5.59239 508.141 6.36101 509.402C7.14361 510.649 7.5349 512.464 7.5349 514.847C7.5349 517.23 7.14361 519.052 6.36101 520.312C5.59239 521.573 4.46042 522.204 2.9651 522.204C1.48376 522.204 0.351782 521.573 -0.430815 520.312C-1.21341 519.052 -1.60471 517.23 -1.60471 514.847C-1.60471 512.478 -1.21341 510.663 -0.430815 509.402C0.351782 508.141 1.48376 507.511 2.9651 507.511ZM-0.116379 514.847C-0.116379 516.537 0.0373518 517.86 0.344801 518.816L4.99845 509.61C4.50933 508.958 3.83155 508.633 2.9651 508.633C2.00083 508.633 1.24618 509.145 0.701155 510.171C0.156133 511.182 -0.116379 512.741 -0.116379 514.847ZM2.9651 521.061C3.94335 521.061 4.70497 520.555 5.25 519.543C5.79502 518.518 6.06754 516.953 6.06754 514.847C6.06754 513.059 5.89284 511.674 5.54347 510.69L0.889819 519.98C1.39292 520.7 2.08468 521.061 2.9651 521.061Z" fill="url(#paint21_linear_122_130)" fill-opacity="0.6"/>
<path d="M4.22284 544.645H7.30432V545.747H-0.682359V544.645H2.88125V532.966L-0.514663 534.982L-1.10161 534.046L3.09087 531.469H4.22284V544.645Z" fill="url(#paint22_linear_122_130)" fill-opacity="0.6"/>
<path d="M2.9651 555.013C4.46042 555.013 5.59239 555.643 6.36101 556.904C7.14361 558.151 7.5349 559.966 7.5349 562.349C7.5349 564.732 7.14361 566.554 6.36101 567.815C5.59239 569.075 4.46042 569.706 2.9651 569.706C1.48376 569.706 0.351782 569.075 -0.430815 567.815C-1.21341 566.554 -1.60471 564.732 -1.60471 562.349C-1.60471 559.98 -1.21341 558.165 -0.430815 556.904C0.351782 555.643 1.48376 555.013 2.9651 555.013ZM-0.116379 562.349C-0.116379 564.039 0.0373518 565.362 0.344801 566.318L4.99845 557.112C4.50933 556.461 3.83155 556.135 2.9651 556.135C2.00083 556.135 1.24618 556.648 0.701155 557.673C0.156133 558.684 -0.116379 560.243 -0.116379 562.349ZM2.9651 568.563C3.94335 568.563 4.70497 568.057 5.25 567.046C5.79502 566.02 6.06754 564.455 6.06754 562.349C6.06754 560.562 5.89284 559.176 5.54347 558.192L0.889819 567.482C1.39292 568.202 2.08468 568.563 2.9651 568.563Z" fill="url(#paint23_linear_122_130)" fill-opacity="0.6"/>
<path d="M4.22284 592.148H7.30432V593.249H-0.682359V592.148H2.88125V580.468L-0.514663 582.484L-1.10161 581.549L3.09087 578.972H4.22284V592.148Z" fill="url(#paint24_linear_122_130)" fill-opacity="0.6"/>
<path d="M4.22284 615.899H7.30432V617H-0.682359V615.899H2.88125V604.219L-0.514663 606.235L-1.10161 605.3L3.09087 602.723H4.22284V615.899Z" fill="url(#paint25_linear_122_130)" fill-opacity="0.6"/>
<path d="M-55.4302 341.253C-53.9349 341.253 -52.8029 341.884 -52.0343 343.144C-51.2517 344.391 -50.8604 346.206 -50.8604 348.589C-50.8604 350.972 -51.2517 352.794 -52.0343 354.055C-52.8029 355.316 -53.9349 355.946 -55.4302 355.946C-56.9115 355.946 -58.0435 355.316 -58.8261 354.055C-59.6087 352.794 -60 350.972 -60 348.589C-60 346.22 -59.6087 344.405 -58.8261 343.144C-58.0435 341.884 -56.9115 341.253 -55.4302 341.253ZM-58.5117 348.589C-58.5117 350.28 -58.3579 351.603 -58.0505 352.559L-53.3968 343.352C-53.886 342.701 -54.5637 342.375 -55.4302 342.375C-56.3945 342.375 -57.1491 342.888 -57.6941 343.913C-58.2392 344.925 -58.5117 346.483 -58.5117 348.589ZM-55.4302 354.803C-54.4519 354.803 -53.6903 354.297 -53.1453 353.286C-52.6003 352.261 -52.3278 350.695 -52.3278 348.589C-52.3278 346.802 -52.5024 345.417 -52.8518 344.433L-57.5055 353.722C-57.0024 354.443 -56.3106 354.803 -55.4302 354.803Z" fill="url(#paint26_linear_122_130)" fill-opacity="0.6"/>
<path d="M-55.4302 365.004C-53.9349 365.004 -52.8029 365.635 -52.0343 366.895C-51.2517 368.142 -50.8604 369.957 -50.8604 372.34C-50.8604 374.723 -51.2517 376.545 -52.0343 377.806C-52.8029 379.067 -53.9349 379.697 -55.4302 379.697C-56.9115 379.697 -58.0435 379.067 -58.8261 377.806C-59.6087 376.545 -60 374.723 -60 372.34C-60 369.971 -59.6087 368.156 -58.8261 366.895C-58.0435 365.635 -56.9115 365.004 -55.4302 365.004ZM-58.5117 372.34C-58.5117 374.031 -58.3579 375.354 -58.0505 376.31L-53.3968 367.103C-53.886 366.452 -54.5637 366.126 -55.4302 366.126C-56.3945 366.126 -57.1491 366.639 -57.6941 367.664C-58.2392 368.676 -58.5117 370.234 -58.5117 372.34ZM-55.4302 378.554C-54.4519 378.554 -53.6903 378.049 -53.1453 377.037C-52.6003 376.012 -52.3278 374.446 -52.3278 372.34C-52.3278 370.553 -52.5024 369.168 -52.8518 368.184L-57.5055 377.474C-57.0024 378.194 -56.3106 378.554 -55.4302 378.554Z" fill="url(#paint27_linear_122_130)" fill-opacity="0.6"/>
<path d="M-54.1724 402.139H-51.091V403.24H-59.0777V402.139H-55.514V390.459L-58.91 392.475L-59.4969 391.54L-55.3044 388.963H-54.1724V402.139Z" fill="url(#paint28_linear_122_130)" fill-opacity="0.6"/>
<path d="M-55.4302 412.506C-53.9349 412.506 -52.8029 413.137 -52.0343 414.398C-51.2517 415.644 -50.8604 417.459 -50.8604 419.842C-50.8604 422.225 -51.2517 424.047 -52.0343 425.308C-52.8029 426.569 -53.9349 427.199 -55.4302 427.199C-56.9115 427.199 -58.0435 426.569 -58.8261 425.308C-59.6087 424.047 -60 422.225 -60 419.842C-60 417.473 -59.6087 415.658 -58.8261 414.398C-58.0435 413.137 -56.9115 412.506 -55.4302 412.506ZM-58.5117 419.842C-58.5117 421.533 -58.3579 422.856 -58.0505 423.812L-53.3968 414.605C-53.886 413.954 -54.5637 413.629 -55.4302 413.629C-56.3945 413.629 -57.1491 414.141 -57.6941 415.166C-58.2392 416.178 -58.5117 417.737 -58.5117 419.842ZM-55.4302 426.056C-54.4519 426.056 -53.6903 425.551 -53.1453 424.539C-52.6003 423.514 -52.3278 421.948 -52.3278 419.842C-52.3278 418.055 -52.5024 416.67 -52.8518 415.686L-57.5055 424.976C-57.0024 425.696 -56.3106 426.056 -55.4302 426.056Z" fill="url(#paint29_linear_122_130)" fill-opacity="0.6"/>
<path d="M-54.1724 449.641H-51.091V450.743H-59.0777V449.641H-55.514V437.962L-58.91 439.977L-59.4969 439.042L-55.3044 436.465H-54.1724V449.641Z" fill="url(#paint30_linear_122_130)" fill-opacity="0.6"/>
<path d="M-54.1724 473.392H-51.091V474.494H-59.0777V473.392H-55.514V461.713L-58.91 463.728L-59.4969 462.793L-55.3044 460.216H-54.1724V473.392Z" fill="url(#paint31_linear_122_130)" fill-opacity="0.6"/>
<path d="M-15.2423 307.135H-12.1608V308.236H-20.1475V307.135H-16.5838V295.455L-19.9798 297.471L-20.5667 296.536L-16.3742 293.959H-15.2423V307.135Z" fill="url(#paint32_linear_122_130)" fill-opacity="0.6"/>
<path d="M-16.5 317.502C-15.0047 317.502 -13.8727 318.133 -13.1041 319.393C-12.3215 320.64 -11.9302 322.455 -11.9302 324.838C-11.9302 327.221 -12.3215 329.043 -13.1041 330.304C-13.8727 331.565 -15.0047 332.195 -16.5 332.195C-17.9813 332.195 -19.1133 331.565 -19.8959 330.304C-20.6785 329.043 -21.0698 327.221 -21.0698 324.838C-21.0698 322.469 -20.6785 320.654 -19.8959 319.393C-19.1133 318.133 -17.9813 317.502 -16.5 317.502ZM-19.5815 324.838C-19.5815 326.529 -19.4277 327.852 -19.1203 328.808L-14.4666 319.601C-14.9558 318.95 -15.6336 318.624 -16.5 318.624C-17.4643 318.624 -18.2189 319.137 -18.7639 320.162C-19.309 321.174 -19.5815 322.732 -19.5815 324.838ZM-16.5 331.052C-15.5218 331.052 -14.7601 330.546 -14.2151 329.535C-13.6701 328.51 -13.3976 326.944 -13.3976 324.838C-13.3976 323.051 -13.5723 321.665 -13.9216 320.682L-18.5753 329.971C-18.0722 330.692 -17.3804 331.052 -16.5 331.052Z" fill="url(#paint33_linear_122_130)" fill-opacity="0.6"/>
<path d="M-15.2423 354.637H-12.1608V355.738H-20.1475V354.637H-16.5838V342.957L-19.9798 344.973L-20.5667 344.038L-16.3742 341.461H-15.2423V354.637Z" fill="url(#paint34_linear_122_130)" fill-opacity="0.6"/>
<path d="M-15.2423 378.388H-12.1608V379.489H-20.1475V378.388H-16.5838V366.708L-19.9798 368.724L-20.5667 367.789L-16.3742 365.212H-15.2423V378.388Z" fill="url(#paint35_linear_122_130)" fill-opacity="0.6"/>
<path d="M-16.5 388.755C-15.0047 388.755 -13.8727 389.386 -13.1041 390.646C-12.3215 391.893 -11.9302 393.708 -11.9302 396.091C-11.9302 398.474 -12.3215 400.296 -13.1041 401.557C-13.8727 402.818 -15.0047 403.448 -16.5 403.448C-17.9813 403.448 -19.1133 402.818 -19.8959 401.557C-20.6785 400.296 -21.0698 398.474 -21.0698 396.091C-21.0698 393.722 -20.6785 391.907 -19.8959 390.646C-19.1133 389.386 -17.9813 388.755 -16.5 388.755ZM-19.5815 396.091C-19.5815 397.782 -19.4277 399.105 -19.1203 400.061L-14.4666 390.854C-14.9558 390.203 -15.6336 389.878 -16.5 389.878C-17.4643 389.878 -18.2189 390.39 -18.7639 391.415C-19.309 392.427 -19.5815 393.985 -19.5815 396.091ZM-16.5 402.305C-15.5218 402.305 -14.7601 401.8 -14.2151 400.788C-13.6701 399.763 -13.3976 398.197 -13.3976 396.091C-13.3976 394.304 -13.5723 392.919 -13.9216 391.935L-18.5753 401.225C-18.0722 401.945 -17.3804 402.305 -16.5 402.305Z" fill="url(#paint36_linear_122_130)" fill-opacity="0.6"/>
<path d="M-15.2423 425.89H-12.1608V426.992H-20.1475V425.89H-16.5838V414.21L-19.9798 416.226L-20.5667 415.291L-16.3742 412.714H-15.2423V425.89Z" fill="url(#paint37_linear_122_130)" fill-opacity="0.6"/>
<path d="M-15.2423 449.641H-12.1608V450.743H-20.1475V449.641H-16.5838V437.962L-19.9798 439.977L-20.5667 439.042L-16.3742 436.465H-15.2423V449.641Z" fill="url(#paint38_linear_122_130)" fill-opacity="0.6"/>
<path d="M-16.5 460.008C-15.0047 460.008 -13.8727 460.639 -13.1041 461.9C-12.3215 463.147 -11.9302 464.962 -11.9302 467.345C-11.9302 469.728 -12.3215 471.549 -13.1041 472.81C-13.8727 474.071 -15.0047 474.701 -16.5 474.701C-17.9813 474.701 -19.1133 474.071 -19.8959 472.81C-20.6785 471.549 -21.0698 469.728 -21.0698 467.345C-21.0698 464.975 -20.6785 463.16 -19.8959 461.9C-19.1133 460.639 -17.9813 460.008 -16.5 460.008ZM-19.5815 467.345C-19.5815 469.035 -19.4277 470.358 -19.1203 471.314L-14.4666 462.107C-14.9558 461.456 -15.6336 461.131 -16.5 461.131C-17.4643 461.131 -18.2189 461.643 -18.7639 462.669C-19.309 463.68 -19.5815 465.239 -19.5815 467.345ZM-16.5 473.558C-15.5218 473.558 -14.7601 473.053 -14.2151 472.041C-13.6701 471.016 -13.3976 469.451 -13.3976 467.345C-13.3976 465.557 -13.5723 464.172 -13.9216 463.188L-18.5753 472.478C-18.0722 473.198 -17.3804 473.558 -16.5 473.558Z" fill="url(#paint39_linear_122_130)" fill-opacity="0.6"/>
<path d="M-15.2423 497.143H-12.1608V498.245H-20.1475V497.143H-16.5838V485.464L-19.9798 487.48L-20.5667 486.544L-16.3742 483.967H-15.2423V497.143Z" fill="url(#paint40_linear_122_130)" fill-opacity="0.6"/>
<path d="M-16.5 507.511C-15.0047 507.511 -13.8727 508.141 -13.1041 509.402C-12.3215 510.649 -11.9302 512.464 -11.9302 514.847C-11.9302 517.23 -12.3215 519.052 -13.1041 520.312C-13.8727 521.573 -15.0047 522.204 -16.5 522.204C-17.9813 522.204 -19.1133 521.573 -19.8959 520.312C-20.6785 519.052 -21.0698 517.23 -21.0698 514.847C-21.0698 512.478 -20.6785 510.663 -19.8959 509.402C-19.1133 508.141 -17.9813 507.511 -16.5 507.511ZM-19.5815 514.847C-19.5815 516.537 -19.4277 517.86 -19.1203 518.816L-14.4666 509.61C-14.9558 508.958 -15.6336 508.633 -16.5 508.633C-17.4643 508.633 -18.2189 509.145 -18.7639 510.171C-19.309 511.182 -19.5815 512.741 -19.5815 514.847ZM-16.5 521.061C-15.5218 521.061 -14.7601 520.555 -14.2151 519.543C-13.6701 518.518 -13.3976 516.953 -13.3976 514.847C-13.3976 513.059 -13.5723 511.674 -13.9216 510.69L-18.5753 519.98C-18.0722 520.7 -17.3804 521.061 -16.5 521.061Z" fill="url(#paint41_linear_122_130)" fill-opacity="0.6"/>
<path d="M22.4302 293.751C23.9255 293.751 25.0575 294.381 25.8261 295.642C26.6087 296.889 27 298.704 27 301.087C27 303.47 26.6087 305.292 25.8261 306.553C25.0575 307.814 23.9255 308.444 22.4302 308.444C20.9489 308.444 19.8169 307.814 19.0343 306.553C18.2517 305.292 17.8604 303.47 17.8604 301.087C17.8604 298.718 18.2517 296.903 19.0343 295.642C19.8169 294.381 20.9489 293.751 22.4302 293.751ZM19.3487 301.087C19.3487 302.777 19.5024 304.101 19.8099 305.057L24.4636 295.85C23.9744 295.199 23.2966 294.873 22.4302 294.873C21.4659 294.873 20.7113 295.386 20.1663 296.411C19.6212 297.423 19.3487 298.981 19.3487 301.087ZM22.4302 307.301C23.4084 307.301 24.1701 306.795 24.7151 305.784C25.2601 304.759 25.5326 303.193 25.5326 301.087C25.5326 299.3 25.3579 297.914 25.0086 296.931L20.3549 306.22C20.858 306.941 21.5498 307.301 22.4302 307.301Z" fill="url(#paint42_linear_122_130)" fill-opacity="0.6"/>
<path d="M23.6879 330.886H26.7694V331.987H18.7827V330.886H22.3463V319.206L18.9504 321.222L18.3635 320.287L22.556 317.71H23.6879V330.886Z" fill="url(#paint43_linear_122_130)" fill-opacity="0.6"/>
<path d="M23.6879 354.637H26.7694V355.738H18.7827V354.637H22.3463V342.957L18.9504 344.973L18.3635 344.038L22.556 341.461H23.6879V354.637Z" fill="url(#paint44_linear_122_130)" fill-opacity="0.6"/>
<path d="M22.4302 365.004C23.9255 365.004 25.0575 365.635 25.8261 366.895C26.6087 368.142 27 369.957 27 372.34C27 374.723 26.6087 376.545 25.8261 377.806C25.0575 379.067 23.9255 379.697 22.4302 379.697C20.9489 379.697 19.8169 379.067 19.0343 377.806C18.2517 376.545 17.8604 374.723 17.8604 372.34C17.8604 369.971 18.2517 368.156 19.0343 366.895C19.8169 365.635 20.9489 365.004 22.4302 365.004ZM19.3487 372.34C19.3487 374.031 19.5024 375.354 19.8099 376.31L24.4636 367.103C23.9744 366.452 23.2966 366.126 22.4302 366.126C21.4659 366.126 20.7113 366.639 20.1663 367.664C19.6212 368.676 19.3487 370.234 19.3487 372.34ZM22.4302 378.554C23.4084 378.554 24.1701 378.049 24.7151 377.037C25.2601 376.012 25.5326 374.446 25.5326 372.34C25.5326 370.553 25.3579 369.168 25.0086 368.184L20.3549 377.474C20.858 378.194 21.5498 378.554 22.4302 378.554Z" fill="url(#paint45_linear_122_130)" fill-opacity="0.6"/>
<path d="M22.4302 388.755C23.9255 388.755 25.0575 389.386 25.8261 390.646C26.6087 391.893 27 393.708 27 396.091C27 398.474 26.6087 400.296 25.8261 401.557C25.0575 402.818 23.9255 403.448 22.4302 403.448C20.9489 403.448 19.8169 402.818 19.0343 401.557C18.2517 400.296 17.8604 398.474 17.8604 396.091C17.8604 393.722 18.2517 391.907 19.0343 390.646C19.8169 389.386 20.9489 388.755 22.4302 388.755ZM19.3487 396.091C19.3487 397.782 19.5024 399.105 19.8099 400.061L24.4636 390.854C23.9744 390.203 23.2966 389.878 22.4302 389.878C21.4659 389.878 20.7113 390.39 20.1663 391.415C19.6212 392.427 19.3487 393.985 19.3487 396.091ZM22.4302 402.305C23.4084 402.305 24.1701 401.8 24.7151 400.788C25.2601 399.763 25.5326 398.197 25.5326 396.091C25.5326 394.304 25.3579 392.919 25.0086 391.935L20.3549 401.225C20.858 401.945 21.5498 402.305 22.4302 402.305Z" fill="url(#paint46_linear_122_130)" fill-opacity="0.6"/>
<g opacity="0.6">
<path d="M850.93 -30C852.356 -30 853.436 -29.395 854.17 -28.1851C854.916 -26.9885 855.29 -25.2468 855.29 -22.9599C855.29 -20.673 854.916 -18.9246 854.17 -17.7147C853.436 -16.5048 852.356 -15.8998 850.93 -15.8998C849.517 -15.8998 848.437 -16.5048 847.69 -17.7147C846.943 -18.9246 846.57 -20.673 846.57 -22.9599C846.57 -25.2335 846.943 -26.9752 847.69 -28.1851C848.437 -29.395 849.517 -30 850.93 -30ZM847.99 -22.9599C847.99 -21.3378 848.137 -20.068 848.43 -19.1506L852.87 -27.9857C852.403 -28.6106 851.756 -28.923 850.93 -28.923C850.01 -28.923 849.29 -28.4311 848.77 -27.4472C848.25 -26.4766 847.99 -24.9808 847.99 -22.9599ZM850.93 -16.9967C851.863 -16.9967 852.59 -17.482 853.11 -18.4526C853.63 -19.4365 853.89 -20.9389 853.89 -22.9599C853.89 -24.675 853.723 -26.0046 853.39 -26.9486L848.95 -18.0338C849.43 -17.3424 850.09 -16.9967 850.93 -16.9967Z" fill="url(#paint47_linear_122_130)"/>
<path d="M852.13 5.63655H855.07V6.69356H847.45V5.63655H850.85V-5.57181L847.61 -3.63727L847.05 -4.53474L851.05 -7.00776H852.13V5.63655Z" fill="url(#paint48_linear_122_130)"/>
<path d="M850.93 15.5856C852.356 15.5856 853.436 16.1906 854.17 17.4005C854.916 18.5971 855.29 20.3389 855.29 22.6257C855.29 24.9126 854.916 26.661 854.17 27.8709C853.436 29.0808 852.356 29.6858 850.93 29.6858C849.517 29.6858 848.437 29.0808 847.69 27.8709C846.943 26.661 846.57 24.9126 846.57 22.6257C846.57 20.3522 846.943 18.6104 847.69 17.4005C848.437 16.1906 849.517 15.5856 850.93 15.5856ZM847.99 22.6257C847.99 24.2478 848.137 25.5176 848.43 26.435L852.87 17.5999C852.403 16.975 851.756 16.6626 850.93 16.6626C850.01 16.6626 849.29 17.1545 848.77 18.1384C848.25 19.109 847.99 20.6048 847.99 22.6257ZM850.93 28.5889C851.863 28.5889 852.59 28.1036 853.11 27.133C853.63 26.1491 853.89 24.6467 853.89 22.6257C853.89 20.9106 853.723 19.581 853.39 18.637L848.95 27.5518C849.43 28.2432 850.09 28.5889 850.93 28.5889Z" fill="url(#paint49_linear_122_130)"/>
<path d="M852.13 51.2221H855.07V52.2792H847.45V51.2221H850.85V40.0138L847.61 41.9483L847.05 41.0509L851.05 38.5778H852.13V51.2221Z" fill="url(#paint50_linear_122_130)"/>
<path d="M852.13 74.015H855.07V75.072H847.45V74.015H850.85V62.8066L847.61 64.7411L847.05 63.8437L851.05 61.3706H852.13V74.015Z" fill="url(#paint51_linear_122_130)"/>
<path d="M850.93 83.964C852.356 83.964 853.436 84.569 854.17 85.7789C854.916 86.9755 855.29 88.7173 855.29 91.0041C855.29 93.291 854.916 95.0394 854.17 96.2493C853.436 97.4593 852.356 98.0642 850.93 98.0642C849.517 98.0642 848.437 97.4593 847.69 96.2493C846.943 95.0394 846.57 93.291 846.57 91.0041C846.57 88.7306 846.943 86.9888 847.69 85.7789C848.437 84.569 849.517 83.964 850.93 83.964ZM847.99 91.0041C847.99 92.6262 848.137 93.896 848.43 94.8134L852.87 85.9783C852.403 85.3534 851.756 85.041 850.93 85.041C850.01 85.041 849.29 85.5329 848.77 86.5168C848.25 87.4874 847.99 88.9832 847.99 91.0041ZM850.93 96.9673C851.863 96.9673 852.59 96.482 853.11 95.5114C853.63 94.5275 853.89 93.0251 853.89 91.0041C853.89 89.289 853.723 87.9594 853.39 87.0154L848.95 95.9302C849.43 96.6216 850.09 96.9673 850.93 96.9673Z" fill="url(#paint52_linear_122_130)"/>
<path d="M852.13 119.601H855.07V120.658H847.45V119.601H850.85V108.392L847.61 110.327L847.05 109.429L851.05 106.956H852.13V119.601Z" fill="url(#paint53_linear_122_130)"/>
<path d="M850.93 129.55C852.356 129.55 853.436 130.155 854.17 131.365C854.916 132.561 855.29 134.303 855.29 136.59C855.29 138.877 854.916 140.625 854.17 141.835C853.436 143.045 852.356 143.65 850.93 143.65C849.517 143.65 848.437 143.045 847.69 141.835C846.943 140.625 846.57 138.877 846.57 136.59C846.57 134.316 846.943 132.574 847.69 131.365C848.437 130.155 849.517 129.55 850.93 129.55ZM847.99 136.59C847.99 138.212 848.137 139.482 848.43 140.399L852.87 131.564C852.403 130.939 851.756 130.627 850.93 130.627C850.01 130.627 849.29 131.119 848.77 132.102C848.25 133.073 847.99 134.569 847.99 136.59ZM850.93 142.553C851.863 142.553 852.59 142.068 853.11 141.097C853.63 140.113 853.89 138.611 853.89 136.59C853.89 134.875 853.723 133.545 853.39 132.601L848.95 141.516C849.43 142.207 850.09 142.553 850.93 142.553Z" fill="url(#paint54_linear_122_130)"/>
<path d="M850.93 152.342C852.356 152.342 853.436 152.947 854.17 154.157C854.916 155.354 855.29 157.096 855.29 159.383C855.29 161.669 854.916 163.418 854.17 164.628C853.436 165.838 852.356 166.443 850.93 166.443C849.517 166.443 848.437 165.838 847.69 164.628C846.943 163.418 846.57 161.669 846.57 159.383C846.57 157.109 846.943 155.367 847.69 154.157C848.437 152.947 849.517 152.342 850.93 152.342ZM847.99 159.383C847.99 161.005 848.137 162.274 848.43 163.192L852.87 154.357C852.403 153.732 851.756 153.419 850.93 153.419C850.01 153.419 849.29 153.911 848.77 154.895C848.25 155.866 847.99 157.362 847.99 159.383ZM850.93 165.346C851.863 165.346 852.59 164.86 853.11 163.89C853.63 162.906 853.89 161.404 853.89 159.383C853.89 157.667 853.723 156.338 853.39 155.394L848.95 164.309C849.43 165 850.09 165.346 850.93 165.346Z" fill="url(#paint55_linear_122_130)"/>
<path d="M852.13 187.979H855.07V189.036H847.45V187.979H850.85V176.771L847.61 178.705L847.05 177.808L851.05 175.335H852.13V187.979Z" fill="url(#paint56_linear_122_130)"/>
<path d="M850.93 197.928C852.356 197.928 853.436 198.533 854.17 199.743C854.916 200.94 855.29 202.681 855.29 204.968C855.29 207.255 854.916 209.003 854.17 210.213C853.436 211.423 852.356 212.028 850.93 212.028C849.517 212.028 848.437 211.423 847.69 210.213C846.943 209.003 846.57 207.255 846.57 204.968C846.57 202.695 846.943 200.953 847.69 199.743C848.437 198.533 849.517 197.928 850.93 197.928ZM847.99 204.968C847.99 206.59 848.137 207.86 848.43 208.777L852.87 199.942C852.403 199.317 851.756 199.005 850.93 199.005C850.01 199.005 849.29 199.497 848.77 200.481C848.25 201.451 847.99 202.947 847.99 204.968ZM850.93 210.931C851.863 210.931 852.59 210.446 853.11 209.475C853.63 208.492 853.89 206.989 853.89 204.968C853.89 203.253 853.723 201.923 853.39 200.979L848.95 209.894C849.43 210.586 850.09 210.931 850.93 210.931Z" fill="url(#paint57_linear_122_130)"/>
<path d="M852.13 233.565H855.07V234.622H847.45V233.565H850.85V222.356L847.61 224.291L847.05 223.393L851.05 220.92H852.13V233.565Z" fill="url(#paint58_linear_122_130)"/>
<path d="M852.13 256.357H855.07V257.414H847.45V256.357H850.85V245.149L847.61 247.084L847.05 246.186L851.05 243.713H852.13V256.357Z" fill="url(#paint59_linear_122_130)"/>
<path d="M888.07 15.5856C889.497 15.5856 890.577 16.1906 891.31 17.4005C892.057 18.5971 892.43 20.3389 892.43 22.6257C892.43 24.9126 892.057 26.661 891.31 27.8709C890.577 29.0808 889.497 29.6858 888.07 29.6858C886.657 29.6858 885.577 29.0808 884.83 27.8709C884.084 26.661 883.71 24.9126 883.71 22.6257C883.71 20.3522 884.084 18.6104 884.83 17.4005C885.577 16.1906 886.657 15.5856 888.07 15.5856ZM885.13 22.6257C885.13 24.2478 885.277 25.5176 885.57 26.435L890.01 17.5999C889.543 16.975 888.897 16.6626 888.07 16.6626C887.15 16.6626 886.43 17.1545 885.91 18.1384C885.39 19.109 885.13 20.6048 885.13 22.6257ZM888.07 28.5889C889.003 28.5889 889.73 28.1036 890.25 27.133C890.77 26.1491 891.03 24.6467 891.03 22.6257C891.03 20.9106 890.863 19.581 890.53 18.637L886.09 27.5518C886.57 28.2432 887.23 28.5889 888.07 28.5889Z" fill="url(#paint60_linear_122_130)"/>
<path d="M889.27 51.2221H892.21V52.2792H884.59V51.2221H887.99V40.0138L884.75 41.9483L884.19 41.0509L888.19 38.5778H889.27V51.2221Z" fill="url(#paint61_linear_122_130)"/>
<path d="M888.07 61.1712C889.497 61.1712 890.577 61.7762 891.31 62.9861C892.057 64.1827 892.43 65.9245 892.43 68.2113C892.43 70.4982 892.057 72.2466 891.31 73.4565C890.577 74.6664 889.497 75.2714 888.07 75.2714C886.657 75.2714 885.577 74.6664 884.83 73.4565C884.084 72.2466 883.71 70.4982 883.71 68.2113C883.71 65.9378 884.084 64.196 884.83 62.9861C885.577 61.7762 886.657 61.1712 888.07 61.1712ZM885.13 68.2113C885.13 69.8334 885.277 71.1032 885.57 72.0206L890.01 63.1855C889.543 62.5606 888.897 62.2482 888.07 62.2482C887.15 62.2482 886.43 62.7401 885.91 63.724C885.39 64.6946 885.13 66.1904 885.13 68.2113ZM888.07 74.1745C889.003 74.1745 889.73 73.6892 890.25 72.7186C890.77 71.7347 891.03 70.2323 891.03 68.2113C891.03 66.4962 890.863 65.1666 890.53 64.2226L886.09 73.1374C886.57 73.8288 887.23 74.1745 888.07 74.1745Z" fill="url(#paint62_linear_122_130)"/>
<path d="M888.07 83.964C889.497 83.964 890.577 84.569 891.31 85.7789C892.057 86.9755 892.43 88.7173 892.43 91.0041C892.43 93.291 892.057 95.0394 891.31 96.2493C890.577 97.4593 889.497 98.0642 888.07 98.0642C886.657 98.0642 885.577 97.4593 884.83 96.2493C884.084 95.0394 883.71 93.291 883.71 91.0041C883.71 88.7306 884.084 86.9888 884.83 85.7789C885.577 84.569 886.657 83.964 888.07 83.964ZM885.13 91.0041C885.13 92.6262 885.277 93.896 885.57 94.8134L890.01 85.9783C889.543 85.3534 888.897 85.041 888.07 85.041C887.15 85.041 886.43 85.5329 885.91 86.5168C885.39 87.4874 885.13 88.9832 885.13 91.0041ZM888.07 96.9673C889.003 96.9673 889.73 96.482 890.25 95.5114C890.77 94.5275 891.03 93.0251 891.03 91.0041C891.03 89.289 890.863 87.9594 890.53 87.0154L886.09 95.9302C886.57 96.6216 887.23 96.9673 888.07 96.9673Z" fill="url(#paint63_linear_122_130)"/>
<path d="M889.27 119.601H892.21V120.658H884.59V119.601H887.99V108.392L884.75 110.327L884.19 109.429L888.19 106.956H889.27V119.601Z" fill="url(#paint64_linear_122_130)"/>
<path d="M888.07 129.55C889.497 129.55 890.577 130.155 891.31 131.365C892.057 132.561 892.43 134.303 892.43 136.59C892.43 138.877 892.057 140.625 891.31 141.835C890.577 143.045 889.497 143.65 888.07 143.65C886.657 143.65 885.577 143.045 884.83 141.835C884.084 140.625 883.71 138.877 883.71 136.59C883.71 134.316 884.084 132.574 884.83 131.365C885.577 130.155 886.657 129.55 888.07 129.55ZM885.13 136.59C885.13 138.212 885.277 139.482 885.57 140.399L890.01 131.564C889.543 130.939 888.897 130.627 888.07 130.627C887.15 130.627 886.43 131.119 885.91 132.102C885.39 133.073 885.13 134.569 885.13 136.59ZM888.07 142.553C889.003 142.553 889.73 142.068 890.25 141.097C890.77 140.113 891.03 138.611 891.03 136.59C891.03 134.875 890.863 133.545 890.53 132.601L886.09 141.516C886.57 142.207 887.23 142.553 888.07 142.553Z" fill="url(#paint65_linear_122_130)"/>
<path d="M889.27 165.186H892.21V166.243H884.59V165.186H887.99V153.978L884.75 155.912L884.19 155.015L888.19 152.542H889.27V165.186Z" fill="url(#paint66_linear_122_130)"/>
<path d="M888.07 175.135C889.497 175.135 890.577 175.74 891.31 176.95C892.057 178.147 892.43 179.888 892.43 182.175C892.43 184.462 892.057 186.211 891.31 187.421C890.577 188.63 889.497 189.235 888.07 189.235C886.657 189.235 885.577 188.63 884.83 187.421C884.084 186.211 883.71 184.462 883.71 182.175C883.71 179.902 884.084 178.16 884.83 176.95C885.577 175.74 886.657 175.135 888.07 175.135ZM885.13 182.175C885.13 183.797 885.277 185.067 885.57 185.985L890.01 177.15C889.543 176.525 888.897 176.212 888.07 176.212C887.15 176.212 886.43 176.704 885.91 177.688C885.39 178.659 885.13 180.154 885.13 182.175ZM888.07 188.139C889.003 188.139 889.73 187.653 890.25 186.683C890.77 185.699 891.03 184.196 891.03 182.175C891.03 180.46 890.863 179.131 890.53 178.187L886.09 187.101C886.57 187.793 887.23 188.139 888.07 188.139Z" fill="url(#paint67_linear_122_130)"/>
<path d="M888.07 197.928C889.497 197.928 890.577 198.533 891.31 199.743C892.057 200.94 892.43 202.681 892.43 204.968C892.43 207.255 892.057 209.003 891.31 210.213C890.577 211.423 889.497 212.028 888.07 212.028C886.657 212.028 885.577 211.423 884.83 210.213C884.084 209.003 883.71 207.255 883.71 204.968C883.71 202.695 884.084 200.953 884.83 199.743C885.577 198.533 886.657 197.928 888.07 197.928ZM885.13 204.968C885.13 206.59 885.277 207.86 885.57 208.777L890.01 199.942C889.543 199.317 888.897 199.005 888.07 199.005C887.15 199.005 886.43 199.497 885.91 200.481C885.39 201.451 885.13 202.947 885.13 204.968ZM888.07 210.931C889.003 210.931 889.73 210.446 890.25 209.475C890.77 208.492 891.03 206.989 891.03 204.968C891.03 203.253 890.863 201.923 890.53 200.979L886.09 209.894C886.57 210.586 887.23 210.931 888.07 210.931Z" fill="url(#paint68_linear_122_130)"/>
<path d="M889.27 233.565H892.21V234.622H884.59V233.565H887.99V222.356L884.75 224.291L884.19 223.393L888.19 220.92H889.27V233.565Z" fill="url(#paint69_linear_122_130)"/>
<path d="M888.07 243.514C889.497 243.514 890.577 244.119 891.31 245.329C892.057 246.525 892.43 248.267 892.43 250.554C892.43 252.841 892.057 254.589 891.31 255.799C890.577 257.009 889.497 257.614 888.07 257.614C886.657 257.614 885.577 257.009 884.83 255.799C884.084 254.589 883.71 252.841 883.71 250.554C883.71 248.28 884.084 246.538 884.83 245.329C885.577 244.119 886.657 243.514 888.07 243.514ZM885.13 250.554C885.13 252.176 885.277 253.446 885.57 254.363L890.01 245.528C889.543 244.903 888.897 244.591 888.07 244.591C887.15 244.591 886.43 245.083 885.91 246.066C885.39 247.037 885.13 248.533 885.13 250.554ZM888.07 256.517C889.003 256.517 889.73 256.032 890.25 255.061C890.77 254.077 891.03 252.575 891.03 250.554C891.03 248.839 890.863 247.509 890.53 246.565L886.09 255.48C886.57 256.171 887.23 256.517 888.07 256.517Z" fill="url(#paint70_linear_122_130)"/>
<path d="M889.27 279.15H892.21V280.207H884.59V279.15H887.99V267.942L884.75 269.876L884.19 268.979L888.19 266.506H889.27V279.15Z" fill="url(#paint71_linear_122_130)"/>
<path d="M889.27 301.943H892.21V303H884.59V301.943H887.99V290.735L884.75 292.669L884.19 291.772L888.19 289.299H889.27V301.943Z" fill="url(#paint72_linear_122_130)"/>
<path d="M832.36 38.3784C833.786 38.3784 834.866 38.9834 835.599 40.1933C836.346 41.3899 836.719 43.1317 836.719 45.4185C836.719 47.7054 836.346 49.4538 835.599 50.6637C834.866 51.8736 833.786 52.4786 832.36 52.4786C830.946 52.4786 829.867 51.8736 829.12 50.6637C828.373 49.4538 828 47.7054 828 45.4185C828 43.145 828.373 41.4032 829.12 40.1933C829.867 38.9834 830.946 38.3784 832.36 38.3784ZM829.42 45.4185C829.42 47.0406 829.567 48.3104 829.86 49.2278L834.3 40.3927C833.833 39.7678 833.186 39.4554 832.36 39.4554C831.44 39.4554 830.72 39.9473 830.2 40.9312C829.68 41.9018 829.42 43.3976 829.42 45.4185ZM832.36 51.3817C833.293 51.3817 834.02 50.8964 834.54 49.9258C835.06 48.9419 835.319 47.4395 835.319 45.4185C835.319 43.7034 835.153 42.3738 834.82 41.4298L830.38 50.3446C830.86 51.036 831.52 51.3817 832.36 51.3817Z" fill="url(#paint73_linear_122_130)"/>
<path d="M832.36 61.1712C833.786 61.1712 834.866 61.7762 835.599 62.9861C836.346 64.1827 836.719 65.9245 836.719 68.2113C836.719 70.4982 836.346 72.2466 835.599 73.4565C834.866 74.6664 833.786 75.2714 832.36 75.2714C830.946 75.2714 829.867 74.6664 829.12 73.4565C828.373 72.2466 828 70.4982 828 68.2113C828 65.9378 828.373 64.196 829.12 62.9861C829.867 61.7762 830.946 61.1712 832.36 61.1712ZM829.42 68.2113C829.42 69.8334 829.567 71.1032 829.86 72.0206L834.3 63.1855C833.833 62.5606 833.186 62.2482 832.36 62.2482C831.44 62.2482 830.72 62.7401 830.2 63.724C829.68 64.6946 829.42 66.1904 829.42 68.2113ZM832.36 74.1745C833.293 74.1745 834.02 73.6892 834.54 72.7186C835.06 71.7347 835.319 70.2323 835.319 68.2113C835.319 66.4962 835.153 65.1666 834.82 64.2226L830.38 73.1374C830.86 73.8288 831.52 74.1745 832.36 74.1745Z" fill="url(#paint74_linear_122_130)"/>
<path d="M833.56 96.8078H836.499V97.8648H828.88V96.8078H832.28V85.5994L829.04 87.5339L828.48 86.6365L832.48 84.1635H833.56V96.8078Z" fill="url(#paint75_linear_122_130)"/>
<path d="M832.36 106.757C833.786 106.757 834.866 107.362 835.599 108.572C836.346 109.768 836.719 111.51 836.719 113.797C836.719 116.084 836.346 117.832 835.599 119.042C834.866 120.252 833.786 120.857 832.36 120.857C830.946 120.857 829.867 120.252 829.12 119.042C828.373 117.832 828 116.084 828 113.797C828 111.523 828.373 109.782 829.12 108.572C829.867 107.362 830.946 106.757 832.36 106.757ZM829.42 113.797C829.42 115.419 829.567 116.689 829.86 117.606L834.3 108.771C833.833 108.146 833.186 107.834 832.36 107.834C831.44 107.834 830.72 108.326 830.2 109.31C829.68 110.28 829.42 111.776 829.42 113.797ZM832.36 119.76C833.293 119.76 834.02 119.275 834.54 118.304C835.06 117.32 835.319 115.818 835.319 113.797C835.319 112.082 835.153 110.752 834.82 109.808L830.38 118.723C830.86 119.414 831.52 119.76 832.36 119.76Z" fill="url(#paint76_linear_122_130)"/>
<path d="M833.56 142.393H836.499V143.45H828.88V142.393H832.28V131.185L829.04 133.12L828.48 132.222L832.48 129.749H833.56V142.393Z" fill="url(#paint77_linear_122_130)"/>
<path d="M833.56 165.186H836.499V166.243H828.88V165.186H832.28V153.978L829.04 155.912L828.48 155.015L832.48 152.542H833.56V165.186Z" fill="url(#paint78_linear_122_130)"/>
<path d="M870.7 5.63655H873.64V6.69356H866.02V5.63655H869.42V-5.57181L866.18 -3.63727L865.62 -4.53474L869.62 -7.00776H870.7V5.63655Z" fill="url(#paint79_linear_122_130)"/>
<path d="M869.5 15.5856C870.927 15.5856 872.006 16.1906 872.74 17.4005C873.486 18.5971 873.86 20.3389 873.86 22.6257C873.86 24.9126 873.486 26.661 872.74 27.8709C872.006 29.0808 870.927 29.6858 869.5 29.6858C868.087 29.6858 867.007 29.0808 866.26 27.8709C865.514 26.661 865.14 24.9126 865.14 22.6257C865.14 20.3522 865.514 18.6104 866.26 17.4005C867.007 16.1906 868.087 15.5856 869.5 15.5856ZM866.56 22.6257C866.56 24.2478 866.707 25.5176 867 26.435L871.44 17.5999C870.973 16.975 870.327 16.6626 869.5 16.6626C868.58 16.6626 867.86 17.1545 867.34 18.1384C866.82 19.109 866.56 20.6048 866.56 22.6257ZM869.5 28.5889C870.433 28.5889 871.16 28.1036 871.68 27.133C872.2 26.1491 872.46 24.6467 872.46 22.6257C872.46 20.9106 872.293 19.581 871.96 18.637L867.52 27.5518C868 28.2432 868.66 28.5889 869.5 28.5889Z" fill="url(#paint80_linear_122_130)"/>
<path d="M870.7 51.2221H873.64V52.2792H866.02V51.2221H869.42V40.0138L866.18 41.9483L865.62 41.0509L869.62 38.5778H870.7V51.2221Z" fill="url(#paint81_linear_122_130)"/>
<path d="M870.7 74.015H873.64V75.072H866.02V74.015H869.42V62.8066L866.18 64.7411L865.62 63.8437L869.62 61.3706H870.7V74.015Z" fill="url(#paint82_linear_122_130)"/>
<path d="M869.5 83.964C870.927 83.964 872.006 84.569 872.74 85.7789C873.486 86.9755 873.86 88.7173 873.86 91.0041C873.86 93.291 873.486 95.0394 872.74 96.2493C872.006 97.4593 870.927 98.0642 869.5 98.0642C868.087 98.0642 867.007 97.4593 866.26 96.2493C865.514 95.0394 865.14 93.291 865.14 91.0041C865.14 88.7306 865.514 86.9888 866.26 85.7789C867.007 84.569 868.087 83.964 869.5 83.964ZM866.56 91.0041C866.56 92.6262 866.707 93.896 867 94.8134L871.44 85.9783C870.973 85.3534 870.327 85.041 869.5 85.041C868.58 85.041 867.86 85.5329 867.34 86.5168C866.82 87.4874 866.56 88.9832 866.56 91.0041ZM869.5 96.9673C870.433 96.9673 871.16 96.482 871.68 95.5114C872.2 94.5275 872.46 93.0251 872.46 91.0041C872.46 89.289 872.293 87.9594 871.96 87.0154L867.52 95.9302C868 96.6216 868.66 96.9673 869.5 96.9673Z" fill="url(#paint83_linear_122_130)"/>
<path d="M870.7 119.601H873.64V120.658H866.02V119.601H869.42V108.392L866.18 110.327L865.62 109.429L869.62 106.956H870.7V119.601Z" fill="url(#paint84_linear_122_130)"/>
<path d="M870.7 142.393H873.64V143.45H866.02V142.393H869.42V131.185L866.18 133.12L865.62 132.222L869.62 129.749H870.7V142.393Z" fill="url(#paint85_linear_122_130)"/>
<path d="M869.5 152.342C870.927 152.342 872.006 152.947 872.74 154.157C873.486 155.354 873.86 157.096 873.86 159.383C873.86 161.669 873.486 163.418 872.74 164.628C872.006 165.838 870.927 166.443 869.5 166.443C868.087 166.443 867.007 165.838 866.26 164.628C865.514 163.418 865.14 161.669 865.14 159.383C865.14 157.109 865.514 155.367 866.26 154.157C867.007 152.947 868.087 152.342 869.5 152.342ZM866.56 159.383C866.56 161.005 866.707 162.274 867 163.192L871.44 154.357C870.973 153.732 870.327 153.419 869.5 153.419C868.58 153.419 867.86 153.911 867.34 154.895C866.82 155.866 866.56 157.362 866.56 159.383ZM869.5 165.346C870.433 165.346 871.16 164.86 871.68 163.89C872.2 162.906 872.46 161.404 872.46 159.383C872.46 157.667 872.293 156.338 871.96 155.394L867.52 164.309C868 165 868.66 165.346 869.5 165.346Z" fill="url(#paint86_linear_122_130)"/>
<path d="M870.7 187.979H873.64V189.036H866.02V187.979H869.42V176.771L866.18 178.705L865.62 177.808L869.62 175.335H870.7V187.979Z" fill="url(#paint87_linear_122_130)"/>
<path d="M869.5 197.928C870.927 197.928 872.006 198.533 872.74 199.743C873.486 200.94 873.86 202.681 873.86 204.968C873.86 207.255 873.486 209.003 872.74 210.213C872.006 211.423 870.927 212.028 869.5 212.028C868.087 212.028 867.007 211.423 866.26 210.213C865.514 209.003 865.14 207.255 865.14 204.968C865.14 202.695 865.514 200.953 866.26 199.743C867.007 198.533 868.087 197.928 869.5 197.928ZM866.56 204.968C866.56 206.59 866.707 207.86 867 208.777L871.44 199.942C870.973 199.317 870.327 199.005 869.5 199.005C868.58 199.005 867.86 199.497 867.34 200.481C866.82 201.451 866.56 202.947 866.56 204.968ZM869.5 210.931C870.433 210.931 871.16 210.446 871.68 209.475C872.2 208.492 872.46 206.989 872.46 204.968C872.46 203.253 872.293 201.923 871.96 200.979L867.52 209.894C868 210.586 868.66 210.931 869.5 210.931Z" fill="url(#paint88_linear_122_130)"/>
<path d="M906.64 -7.2072C908.067 -7.2072 909.147 -6.60224 909.88 -5.39232C910.627 -4.1957 911 -2.45395 911 -0.167072C911 2.11981 910.627 3.86821 909.88 5.07812C909.147 6.28804 908.067 6.893 906.64 6.893C905.227 6.893 904.147 6.28804 903.401 5.07812C902.654 3.86821 902.281 2.11981 902.281 -0.167072C902.281 -2.44065 902.654 -4.1824 903.401 -5.39232C904.147 -6.60224 905.227 -7.2072 906.64 -7.2072ZM903.7 -0.167072C903.7 1.45502 903.847 2.72477 904.14 3.64218L908.58 -5.19288C908.114 -5.81779 907.467 -6.13024 906.64 -6.13024C905.72 -6.13024 905 -5.63829 904.48 -4.6544C903.96 -3.68381 903.7 -2.18803 903.7 -0.167072ZM906.64 5.7961C907.574 5.7961 908.3 5.3108 908.82 4.34021C909.34 3.35632 909.6 1.85389 909.6 -0.167072C909.6 -1.88223 909.433 -3.21181 909.1 -4.15581L904.66 4.75902C905.14 5.4504 905.8 5.7961 906.64 5.7961Z" fill="url(#paint89_linear_122_130)"/>
<path d="M907.84 28.4293H910.78V29.4864H903.161V28.4293H906.56V17.221L903.321 19.1555L902.761 18.2581L906.76 15.785H907.84V28.4293Z" fill="url(#paint90_linear_122_130)"/>
<path d="M907.84 51.2221H910.78V52.2792H903.161V51.2221H906.56V40.0138L903.321 41.9483L902.761 41.0509L906.76 38.5778H907.84V51.2221Z" fill="url(#paint91_linear_122_130)"/>
<path d="M906.64 61.1712C908.067 61.1712 909.147 61.7762 909.88 62.9861C910.627 64.1827 911 65.9245 911 68.2113C911 70.4982 910.627 72.2466 909.88 73.4565C909.147 74.6664 908.067 75.2714 906.64 75.2714C905.227 75.2714 904.147 74.6664 903.401 73.4565C902.654 72.2466 902.281 70.4982 902.281 68.2113C902.281 65.9378 902.654 64.196 903.401 62.9861C904.147 61.7762 905.227 61.1712 906.64 61.1712ZM903.7 68.2113C903.7 69.8334 903.847 71.1032 904.14 72.0206L908.58 63.1855C908.114 62.5606 907.467 62.2482 906.64 62.2482C905.72 62.2482 905 62.7401 904.48 63.724C903.96 64.6946 903.7 66.1904 903.7 68.2113ZM906.64 74.1745C907.574 74.1745 908.3 73.6892 908.82 72.7186C909.34 71.7347 909.6 70.2323 909.6 68.2113C909.6 66.4962 909.433 65.1666 909.1 64.2226L904.66 73.1374C905.14 73.8288 905.8 74.1745 906.64 74.1745Z" fill="url(#paint92_linear_122_130)"/>
<path d="M906.64 83.964C908.067 83.964 909.147 84.569 909.88 85.7789C910.627 86.9755 911 88.7173 911 91.0041C911 93.291 910.627 95.0394 909.88 96.2493C909.147 97.4593 908.067 98.0642 906.64 98.0642C905.227 98.0642 904.147 97.4593 903.401 96.2493C902.654 95.0394 902.281 93.291 902.281 91.0041C902.281 88.7306 902.654 86.9888 903.401 85.7789C904.147 84.569 905.227 83.964 906.64 83.964ZM903.7 91.0041C903.7 92.6262 903.847 93.896 904.14 94.8134L908.58 85.9783C908.114 85.3534 907.467 85.041 906.64 85.041C905.72 85.041 905 85.5329 904.48 86.5168C903.96 87.4874 903.7 88.9832 903.7 91.0041ZM906.64 96.9673C907.574 96.9673 908.3 96.482 908.82 95.5114C909.34 94.5275 909.6 93.0251 909.6 91.0041C909.6 89.289 909.433 87.9594 909.1 87.0154L904.66 95.9302C905.14 96.6216 905.8 96.9673 906.64 96.9673Z" fill="url(#paint93_linear_122_130)"/>
</g>
</g>
<defs>
<filter id="filter0_f_122_130" x="-627.19" y="-716.19" width="2141.38" height="1500.38" filterUnits="userSpaceOnUse" color-interpolation-filters="sRGB">
<feFlood flood-opacity="0" result="BackgroundImageFix"/>
<feBlend mode="normal" in="SourceGraphic" in2="BackgroundImageFix" result="shape"/>
<feGaussianBlur stdDeviation="200.095" result="effect1_foregroundBlur_122_130"/>
</filter>
<linearGradient id="paint0_linear_122_130" x1="-16.5" y1="270" x2="-16.5" y2="581.381" gradientUnits="userSpaceOnUse">
<stop stop-color="#F7DD43"/>
<stop offset="1" stop-color="#F7DD43" stop-opacity="0"/>
</linearGradient>
<linearGradient id="paint1_linear_122_130" x1="-16.5" y1="270" x2="-16.5" y2="581.381" gradientUnits="userSpaceOnUse">
<stop stop-color="#F7DD43"/>
<stop offset="1" stop-color="#F7DD43" stop-opacity="0"/>
</linearGradient>
<linearGradient id="paint2_linear_122_130" x1="-16.5" y1="270" x2="-16.5" y2="581.381" gradientUnits="userSpaceOnUse">
<stop stop-color="#F7DD43"/>
<stop offset="1" stop-color="#F7DD43" stop-opacity="0"/>
</linearGradient>
<linearGradient id="paint3_linear_122_130" x1="-16.5" y1="270" x2="-16.5" y2="581.381" gradientUnits="userSpaceOnUse">
<stop stop-color="#F7DD43"/>
<stop offset="1" stop-color="#F7DD43" stop-opacity="0"/>
</linearGradient>
<linearGradient id="paint4_linear_122_130" x1="-16.5" y1="270" x2="-16.5" y2="581.381" gradientUnits="userSpaceOnUse">
<stop stop-color="#F7DD43"/>
<stop offset="1" stop-color="#F7DD43" stop-opacity="0"/>
</linearGradient>
<linearGradient id="paint5_linear_122_130" x1="-16.5" y1="270" x2="-16.5" y2="581.381" gradientUnits="userSpaceOnUse">
<stop stop-color="#F7DD43"/>
<stop offset="1" stop-color="#F7DD43" stop-opacity="0"/>
</linearGradient>
<linearGradient id="paint6_linear_122_130" x1="-16.5" y1="270" x2="-16.5" y2="581.381" gradientUnits="userSpaceOnUse">
<stop stop-color="#F7DD43"/>
<stop offset="1" stop-color="#F7DD43" stop-opacity="0"/>
</linearGradient>
<linearGradient id="paint7_linear_122_130" x1="-16.5" y1="270" x2="-16.5" y2="581.381" gradientUnits="userSpaceOnUse">
<stop stop-color="#F7DD43"/>
<stop offset="1" stop-color="#F7DD43" stop-opacity="0"/>
</linearGradient>
<linearGradient id="paint8_linear_122_130" x1="-16.5" y1="270" x2="-16.5" y2="581.381" gradientUnits="userSpaceOnUse">
<stop stop-color="#F7DD43"/>
<stop offset="1" stop-color="#F7DD43" stop-opacity="0"/>
</linearGradient>
<linearGradient id="paint9_linear_122_130" x1="-16.5" y1="270" x2="-16.5" y2="581.381" gradientUnits="userSpaceOnUse">
<stop stop-color="#F7DD43"/>
<stop offset="1" stop-color="#F7DD43" stop-opacity="0"/>
</linearGradient>
<linearGradient id="paint10_linear_122_130" x1="-16.5" y1="270" x2="-16.5" y2="581.381" gradientUnits="userSpaceOnUse">
<stop stop-color="#F7DD43"/>
<stop offset="1" stop-color="#F7DD43" stop-opacity="0"/>
</linearGradient>
<linearGradient id="paint11_linear_122_130" x1="-16.5" y1="270" x2="-16.5" y2="581.381" gradientUnits="userSpaceOnUse">
<stop stop-color="#F7DD43"/>
<stop offset="1" stop-color="#F7DD43" stop-opacity="0"/>
</linearGradient>
<linearGradient id="paint12_linear_122_130" x1="-16.5" y1="270" x2="-16.5" y2="581.381" gradientUnits="userSpaceOnUse">
<stop stop-color="#F7DD43"/>
<stop offset="1" stop-color="#F7DD43" stop-opacity="0"/>
</linearGradient>
<linearGradient id="paint13_linear_122_130" x1="-16.5" y1="270" x2="-16.5" y2="581.381" gradientUnits="userSpaceOnUse">
<stop stop-color="#F7DD43"/>
<stop offset="1" stop-color="#F7DD43" stop-opacity="0"/>
</linearGradient>
<linearGradient id="paint14_linear_122_130" x1="-16.5" y1="270" x2="-16.5" y2="581.381" gradientUnits="userSpaceOnUse">
<stop stop-color="#F7DD43"/>
<stop offset="1" stop-color="#F7DD43" stop-opacity="0"/>
</linearGradient>
<linearGradient id="paint15_linear_122_130" x1="-16.5" y1="270" x2="-16.5" y2="581.381" gradientUnits="userSpaceOnUse">
<stop stop-color="#F7DD43"/>
<stop offset="1" stop-color="#F7DD43" stop-opacity="0"/>
</linearGradient>
<linearGradient id="paint16_linear_122_130" x1="-16.5" y1="270" x2="-16.5" y2="581.381" gradientUnits="userSpaceOnUse">
<stop stop-color="#F7DD43"/>
<stop offset="1" stop-color="#F7DD43" stop-opacity="0"/>
</linearGradient>
<linearGradient id="paint17_linear_122_130" x1="-16.5" y1="270" x2="-16.5" y2="581.381" gradientUnits="userSpaceOnUse">
<stop stop-color="#F7DD43"/>
<stop offset="1" stop-color="#F7DD43" stop-opacity="0"/>
</linearGradient>
<linearGradient id="paint18_linear_122_130" x1="-16.5" y1="270" x2="-16.5" y2="581.381" gradientUnits="userSpaceOnUse">
<stop stop-color="#F7DD43"/>
<stop offset="1" stop-color="#F7DD43" stop-opacity="0"/>
</linearGradient>
<linearGradient id="paint19_linear_122_130" x1="-16.5" y1="270" x2="-16.5" y2="581.381" gradientUnits="userSpaceOnUse">
<stop stop-color="#F7DD43"/>
<stop offset="1" stop-color="#F7DD43" stop-opacity="0"/>
</linearGradient>
<linearGradient id="paint20_linear_122_130" x1="-16.5" y1="270" x2="-16.5" y2="581.381" gradientUnits="userSpaceOnUse">
<stop stop-color="#F7DD43"/>
<stop offset="1" stop-color="#F7DD43" stop-opacity="0"/>
</linearGradient>
<linearGradient id="paint21_linear_122_130" x1="-16.5" y1="270" x2="-16.5" y2="581.381" gradientUnits="userSpaceOnUse">
<stop stop-color="#F7DD43"/>
<stop offset="1" stop-color="#F7DD43" stop-opacity="0"/>
</linearGradient>
<linearGradient id="paint22_linear_122_130" x1="-16.5" y1="270" x2="-16.5" y2="581.381" gradientUnits="userSpaceOnUse">
<stop stop-color="#F7DD43"/>
<stop offset="1" stop-color="#F7DD43" stop-opacity="0"/>
</linearGradient>
<linearGradient id="paint23_linear_122_130" x1="-16.5" y1="270" x2="-16.5" y2="581.381" gradientUnits="userSpaceOnUse">
<stop stop-color="#F7DD43"/>
<stop offset="1" stop-color="#F7DD43" stop-opacity="0"/>
</linearGradient>
<linearGradient id="paint24_linear_122_130" x1="-16.5" y1="270" x2="-16.5" y2="581.381" gradientUnits="userSpaceOnUse">
<stop stop-color="#F7DD43"/>
<stop offset="1" stop-color="#F7DD43" stop-opacity="0"/>
</linearGradient>
<linearGradient id="paint25_linear_122_130" x1="-16.5" y1="270" x2="-16.5" y2="581.381" gradientUnits="userSpaceOnUse">
<stop stop-color="#F7DD43"/>
<stop offset="1" stop-color="#F7DD43" stop-opacity="0"/>
</linearGradient>
<linearGradient id="paint26_linear_122_130" x1="-16.5" y1="270" x2="-16.5" y2="581.381" gradientUnits="userSpaceOnUse">
<stop stop-color="#F7DD43"/>
<stop offset="1" stop-color="#F7DD43" stop-opacity="0"/>
</linearGradient>
<linearGradient id="paint27_linear_122_130" x1="-16.5" y1="270" x2="-16.5" y2="581.381" gradientUnits="userSpaceOnUse">
<stop stop-color="#F7DD43"/>
<stop offset="1" stop-color="#F7DD43" stop-opacity="0"/>
</linearGradient>
<linearGradient id="paint28_linear_122_130" x1="-16.5" y1="270" x2="-16.5" y2="581.381" gradientUnits="userSpaceOnUse">
<stop stop-color="#F7DD43"/>
<stop offset="1" stop-color="#F7DD43" stop-opacity="0"/>
</linearGradient>
<linearGradient id="paint29_linear_122_130" x1="-16.5" y1="270" x2="-16.5" y2="581.381" gradientUnits="userSpaceOnUse">
<stop stop-color="#F7DD43"/>
<stop offset="1" stop-color="#F7DD43" stop-opacity="0"/>
</linearGradient>
<linearGradient id="paint30_linear_122_130" x1="-16.5" y1="270" x2="-16.5" y2="581.381" gradientUnits="userSpaceOnUse">
<stop stop-color="#F7DD43"/>
<stop offset="1" stop-color="#F7DD43" stop-opacity="0"/>
</linearGradient>
<linearGradient id="paint31_linear_122_130" x1="-16.5" y1="270" x2="-16.5" y2="581.381" gradientUnits="userSpaceOnUse">
<stop stop-color="#F7DD43"/>
<stop offset="1" stop-color="#F7DD43" stop-opacity="0"/>
</linearGradient>
<linearGradient id="paint32_linear_122_130" x1="-16.5" y1="270" x2="-16.5" y2="581.381" gradientUnits="userSpaceOnUse">
<stop stop-color="#F7DD43"/>
<stop offset="1" stop-color="#F7DD43" stop-opacity="0"/>
</linearGradient>
<linearGradient id="paint33_linear_122_130" x1="-16.5" y1="270" x2="-16.5" y2="581.381" gradientUnits="userSpaceOnUse">
<stop stop-color="#F7DD43"/>
<stop offset="1" stop-color="#F7DD43" stop-opacity="0"/>
</linearGradient>
<linearGradient id="paint34_linear_122_130" x1="-16.5" y1="270" x2="-16.5" y2="581.381" gradientUnits="userSpaceOnUse">
<stop stop-color="#F7DD43"/>
<stop offset="1" stop-color="#F7DD43" stop-opacity="0"/>
</linearGradient>
<linearGradient id="paint35_linear_122_130" x1="-16.5" y1="270" x2="-16.5" y2="581.381" gradientUnits="userSpaceOnUse">
<stop stop-color="#F7DD43"/>
<stop offset="1" stop-color="#F7DD43" stop-opacity="0"/>
</linearGradient>
<linearGradient id="paint36_linear_122_130" x1="-16.5" y1="270" x2="-16.5" y2="581.381" gradientUnits="userSpaceOnUse">
<stop stop-color="#F7DD43"/>
<stop offset="1" stop-color="#F7DD43" stop-opacity="0"/>
</linearGradient>
<linearGradient id="paint37_linear_122_130" x1="-16.5" y1="270" x2="-16.5" y2="581.381" gradientUnits="userSpaceOnUse">
<stop stop-color="#F7DD43"/>
<stop offset="1" stop-color="#F7DD43" stop-opacity="0"/>
</linearGradient>
<linearGradient id="paint38_linear_122_130" x1="-16.5" y1="270" x2="-16.5" y2="581.381" gradientUnits="userSpaceOnUse">
<stop stop-color="#F7DD43"/>
<stop offset="1" stop-color="#F7DD43" stop-opacity="0"/>
</linearGradient>
<linearGradient id="paint39_linear_122_130" x1="-16.5" y1="270" x2="-16.5" y2="581.381" gradientUnits="userSpaceOnUse">
<stop stop-color="#F7DD43"/>
<stop offset="1" stop-color="#F7DD43" stop-opacity="0"/>
</linearGradient>
<linearGradient id="paint40_linear_122_130" x1="-16.5" y1="270" x2="-16.5" y2="581.381" gradientUnits="userSpaceOnUse">
<stop stop-color="#F7DD43"/>
<stop offset="1" stop-color="#F7DD43" stop-opacity="0"/>
</linearGradient>
<linearGradient id="paint41_linear_122_130" x1="-16.5" y1="270" x2="-16.5" y2="581.381" gradientUnits="userSpaceOnUse">
<stop stop-color="#F7DD43"/>
<stop offset="1" stop-color="#F7DD43" stop-opacity="0"/>
</linearGradient>
<linearGradient id="paint42_linear_122_130" x1="-16.5" y1="270" x2="-16.5" y2="581.381" gradientUnits="userSpaceOnUse">
<stop stop-color="#F7DD43"/>
<stop offset="1" stop-color="#F7DD43" stop-opacity="0"/>
</linearGradient>
<linearGradient id="paint43_linear_122_130" x1="-16.5" y1="270" x2="-16.5" y2="581.381" gradientUnits="userSpaceOnUse">
<stop stop-color="#F7DD43"/>
<stop offset="1" stop-color="#F7DD43" stop-opacity="0"/>
</linearGradient>
<linearGradient id="paint44_linear_122_130" x1="-16.5" y1="270" x2="-16.5" y2="581.381" gradientUnits="userSpaceOnUse">
<stop stop-color="#F7DD43"/>
<stop offset="1" stop-color="#F7DD43" stop-opacity="0"/>
</linearGradient>
<linearGradient id="paint45_linear_122_130" x1="-16.5" y1="270" x2="-16.5" y2="581.381" gradientUnits="userSpaceOnUse">
<stop stop-color="#F7DD43"/>
<stop offset="1" stop-color="#F7DD43" stop-opacity="0"/>
</linearGradient>
<linearGradient id="paint46_linear_122_130" x1="-16.5" y1="270" x2="-16.5" y2="581.381" gradientUnits="userSpaceOnUse">
<stop stop-color="#F7DD43"/>
<stop offset="1" stop-color="#F7DD43" stop-opacity="0"/>
</linearGradient>
<linearGradient id="paint47_linear_122_130" x1="869.5" y1="-30" x2="869.5" y2="268.818" gradientUnits="userSpaceOnUse">
<stop stop-color="#F7DD43"/>
<stop offset="1" stop-color="#F7DD43" stop-opacity="0"/>
</linearGradient>
<linearGradient id="paint48_linear_122_130" x1="869.5" y1="-30" x2="869.5" y2="268.818" gradientUnits="userSpaceOnUse">
<stop stop-color="#F7DD43"/>
<stop offset="1" stop-color="#F7DD43" stop-opacity="0"/>
</linearGradient>
<linearGradient id="paint49_linear_122_130" x1="869.5" y1="-30" x2="869.5" y2="268.818" gradientUnits="userSpaceOnUse">
<stop stop-color="#F7DD43"/>
<stop offset="1" stop-color="#F7DD43" stop-opacity="0"/>
</linearGradient>
<linearGradient id="paint50_linear_122_130" x1="869.5" y1="-30" x2="869.5" y2="268.818" gradientUnits="userSpaceOnUse">
<stop stop-color="#F7DD43"/>
<stop offset="1" stop-color="#F7DD43" stop-opacity="0"/>
</linearGradient>
<linearGradient id="paint51_linear_122_130" x1="869.5" y1="-30" x2="869.5" y2="268.818" gradientUnits="userSpaceOnUse">
<stop stop-color="#F7DD43"/>
<stop offset="1" stop-color="#F7DD43" stop-opacity="0"/>
</linearGradient>
<linearGradient id="paint52_linear_122_130" x1="869.5" y1="-30" x2="869.5" y2="268.818" gradientUnits="userSpaceOnUse">
<stop stop-color="#F7DD43"/>
<stop offset="1" stop-color="#F7DD43" stop-opacity="0"/>
</linearGradient>
<linearGradient id="paint53_linear_122_130" x1="869.5" y1="-30" x2="869.5" y2="268.818" gradientUnits="userSpaceOnUse">
<stop stop-color="#F7DD43"/>
<stop offset="1" stop-color="#F7DD43" stop-opacity="0"/>
</linearGradient>
<linearGradient id="paint54_linear_122_130" x1="869.5" y1="-30" x2="869.5" y2="268.818" gradientUnits="userSpaceOnUse">
<stop stop-color="#F7DD43"/>
<stop offset="1" stop-color="#F7DD43" stop-opacity="0"/>
</linearGradient>
<linearGradient id="paint55_linear_122_130" x1="869.5" y1="-30" x2="869.5" y2="268.818" gradientUnits="userSpaceOnUse">
<stop stop-color="#F7DD43"/>
<stop offset="1" stop-color="#F7DD43" stop-opacity="0"/>
</linearGradient>
<linearGradient id="paint56_linear_122_130" x1="869.5" y1="-30" x2="869.5" y2="268.818" gradientUnits="userSpaceOnUse">
<stop stop-color="#F7DD43"/>
<stop offset="1" stop-color="#F7DD43" stop-opacity="0"/>
</linearGradient>
<linearGradient id="paint57_linear_122_130" x1="869.5" y1="-30" x2="869.5" y2="268.818" gradientUnits="userSpaceOnUse">
<stop stop-color="#F7DD43"/>
<stop offset="1" stop-color="#F7DD43" stop-opacity="0"/>
</linearGradient>
<linearGradient id="paint58_linear_122_130" x1="869.5" y1="-30" x2="869.5" y2="268.818" gradientUnits="userSpaceOnUse">
<stop stop-color="#F7DD43"/>
<stop offset="1" stop-color="#F7DD43" stop-opacity="0"/>
</linearGradient>
<linearGradient id="paint59_linear_122_130" x1="869.5" y1="-30" x2="869.5" y2="268.818" gradientUnits="userSpaceOnUse">
<stop stop-color="#F7DD43"/>
<stop offset="1" stop-color="#F7DD43" stop-opacity="0"/>
</linearGradient>
<linearGradient id="paint60_linear_122_130" x1="869.5" y1="-30" x2="869.5" y2="268.818" gradientUnits="userSpaceOnUse">
<stop stop-color="#F7DD43"/>
<stop offset="1" stop-color="#F7DD43" stop-opacity="0"/>
</linearGradient>
<linearGradient id="paint61_linear_122_130" x1="869.5" y1="-30" x2="869.5" y2="268.818" gradientUnits="userSpaceOnUse">
<stop stop-color="#F7DD43"/>
<stop offset="1" stop-color="#F7DD43" stop-opacity="0"/>
</linearGradient>
<linearGradient id="paint62_linear_122_130" x1="869.5" y1="-30" x2="869.5" y2="268.818" gradientUnits="userSpaceOnUse">
<stop stop-color="#F7DD43"/>
<stop offset="1" stop-color="#F7DD43" stop-opacity="0"/>
</linearGradient>
<linearGradient id="paint63_linear_122_130" x1="869.5" y1="-30" x2="869.5" y2="268.818" gradientUnits="userSpaceOnUse">
<stop stop-color="#F7DD43"/>
<stop offset="1" stop-color="#F7DD43" stop-opacity="0"/>
</linearGradient>
<linearGradient id="paint64_linear_122_130" x1="869.5" y1="-30" x2="869.5" y2="268.818" gradientUnits="userSpaceOnUse">
<stop stop-color="#F7DD43"/>
<stop offset="1" stop-color="#F7DD43" stop-opacity="0"/>
</linearGradient>
<linearGradient id="paint65_linear_122_130" x1="869.5" y1="-30" x2="869.5" y2="268.818" gradientUnits="userSpaceOnUse">
<stop stop-color="#F7DD43"/>
<stop offset="1" stop-color="#F7DD43" stop-opacity="0"/>
</linearGradient>
<linearGradient id="paint66_linear_122_130" x1="869.5" y1="-30" x2="869.5" y2="268.818" gradientUnits="userSpaceOnUse">
<stop stop-color="#F7DD43"/>
<stop offset="1" stop-color="#F7DD43" stop-opacity="0"/>
</linearGradient>
<linearGradient id="paint67_linear_122_130" x1="869.5" y1="-30" x2="869.5" y2="268.818" gradientUnits="userSpaceOnUse">
<stop stop-color="#F7DD43"/>
<stop offset="1" stop-color="#F7DD43" stop-opacity="0"/>
</linearGradient>
<linearGradient id="paint68_linear_122_130" x1="869.5" y1="-30" x2="869.5" y2="268.818" gradientUnits="userSpaceOnUse">
<stop stop-color="#F7DD43"/>
<stop offset="1" stop-color="#F7DD43" stop-opacity="0"/>
</linearGradient>
<linearGradient id="paint69_linear_122_130" x1="869.5" y1="-30" x2="869.5" y2="268.818" gradientUnits="userSpaceOnUse">
<stop stop-color="#F7DD43"/>
<stop offset="1" stop-color="#F7DD43" stop-opacity="0"/>
</linearGradient>
<linearGradient id="paint70_linear_122_130" x1="869.5" y1="-30" x2="869.5" y2="268.818" gradientUnits="userSpaceOnUse">
<stop stop-color="#F7DD43"/>
<stop offset="1" stop-color="#F7DD43" stop-opacity="0"/>
</linearGradient>
<linearGradient id="paint71_linear_122_130" x1="869.5" y1="-30" x2="869.5" y2="268.818" gradientUnits="userSpaceOnUse">
<stop stop-color="#F7DD43"/>
<stop offset="1" stop-color="#F7DD43" stop-opacity="0"/>
</linearGradient>
<linearGradient id="paint72_linear_122_130" x1="869.5" y1="-30" x2="869.5" y2="268.818" gradientUnits="userSpaceOnUse">
<stop stop-color="#F7DD43"/>
<stop offset="1" stop-color="#F7DD43" stop-opacity="0"/>
</linearGradient>
<linearGradient id="paint73_linear_122_130" x1="869.5" y1="-30" x2="869.5" y2="268.818" gradientUnits="userSpaceOnUse">
<stop stop-color="#F7DD43"/>
<stop offset="1" stop-color="#F7DD43" stop-opacity="0"/>
</linearGradient>
<linearGradient id="paint74_linear_122_130" x1="869.5" y1="-30" x2="869.5" y2="268.818" gradientUnits="userSpaceOnUse">
<stop stop-color="#F7DD43"/>
<stop offset="1" stop-color="#F7DD43" stop-opacity="0"/>
</linearGradient>
<linearGradient id="paint75_linear_122_130" x1="869.5" y1="-30" x2="869.5" y2="268.818" gradientUnits="userSpaceOnUse">
<stop stop-color="#F7DD43"/>
<stop offset="1" stop-color="#F7DD43" stop-opacity="0"/>
</linearGradient>
<linearGradient id="paint76_linear_122_130" x1="869.5" y1="-30" x2="869.5" y2="268.818" gradientUnits="userSpaceOnUse">
<stop stop-color="#F7DD43"/>
<stop offset="1" stop-color="#F7DD43" stop-opacity="0"/>
</linearGradient>
<linearGradient id="paint77_linear_122_130" x1="869.5" y1="-30" x2="869.5" y2="268.818" gradientUnits="userSpaceOnUse">
<stop stop-color="#F7DD43"/>
<stop offset="1" stop-color="#F7DD43" stop-opacity="0"/>
</linearGradient>
<linearGradient id="paint78_linear_122_130" x1="869.5" y1="-30" x2="869.5" y2="268.818" gradientUnits="userSpaceOnUse">
<stop stop-color="#F7DD43"/>
<stop offset="1" stop-color="#F7DD43" stop-opacity="0"/>
</linearGradient>
<linearGradient id="paint79_linear_122_130" x1="869.5" y1="-30" x2="869.5" y2="268.818" gradientUnits="userSpaceOnUse">
<stop stop-color="#F7DD43"/>
<stop offset="1" stop-color="#F7DD43" stop-opacity="0"/>
</linearGradient>
<linearGradient id="paint80_linear_122_130" x1="869.5" y1="-30" x2="869.5" y2="268.818" gradientUnits="userSpaceOnUse">
<stop stop-color="#F7DD43"/>
<stop offset="1" stop-color="#F7DD43" stop-opacity="0"/>
</linearGradient>
<linearGradient id="paint81_linear_122_130" x1="869.5" y1="-30" x2="869.5" y2="268.818" gradientUnits="userSpaceOnUse">
<stop stop-color="#F7DD43"/>
<stop offset="1" stop-color="#F7DD43" stop-opacity="0"/>
</linearGradient>
<linearGradient id="paint82_linear_122_130" x1="869.5" y1="-30" x2="869.5" y2="268.818" gradientUnits="userSpaceOnUse">
<stop stop-color="#F7DD43"/>
<stop offset="1" stop-color="#F7DD43" stop-opacity="0"/>
</linearGradient>
<linearGradient id="paint83_linear_122_130" x1="869.5" y1="-30" x2="869.5" y2="268.818" gradientUnits="userSpaceOnUse">
<stop stop-color="#F7DD43"/>
<stop offset="1" stop-color="#F7DD43" stop-opacity="0"/>
</linearGradient>
<linearGradient id="paint84_linear_122_130" x1="869.5" y1="-30" x2="869.5" y2="268.818" gradientUnits="userSpaceOnUse">
<stop stop-color="#F7DD43"/>
<stop offset="1" stop-color="#F7DD43" stop-opacity="0"/>
</linearGradient>
<linearGradient id="paint85_linear_122_130" x1="869.5" y1="-30" x2="869.5" y2="268.818" gradientUnits="userSpaceOnUse">
<stop stop-color="#F7DD43"/>
<stop offset="1" stop-color="#F7DD43" stop-opacity="0"/>
</linearGradient>
<linearGradient id="paint86_linear_122_130" x1="869.5" y1="-30" x2="869.5" y2="268.818" gradientUnits="userSpaceOnUse">
<stop stop-color="#F7DD43"/>
<stop offset="1" stop-color="#F7DD43" stop-opacity="0"/>
</linearGradient>
<linearGradient id="paint87_linear_122_130" x1="869.5" y1="-30" x2="869.5" y2="268.818" gradientUnits="userSpaceOnUse">
<stop stop-color="#F7DD43"/>
<stop offset="1" stop-color="#F7DD43" stop-opacity="0"/>
</linearGradient>
<linearGradient id="paint88_linear_122_130" x1="869.5" y1="-30" x2="869.5" y2="268.818" gradientUnits="userSpaceOnUse">
<stop stop-color="#F7DD43"/>
<stop offset="1" stop-color="#F7DD43" stop-opacity="0"/>
</linearGradient>
<linearGradient id="paint89_linear_122_130" x1="869.5" y1="-30" x2="869.5" y2="268.818" gradientUnits="userSpaceOnUse">
<stop stop-color="#F7DD43"/>
<stop offset="1" stop-color="#F7DD43" stop-opacity="0"/>
</linearGradient>
<linearGradient id="paint90_linear_122_130" x1="869.5" y1="-30" x2="869.5" y2="268.818" gradientUnits="userSpaceOnUse">
<stop stop-color="#F7DD43"/>
<stop offset="1" stop-color="#F7DD43" stop-opacity="0"/>
</linearGradient>
<linearGradient id="paint91_linear_122_130" x1="869.5" y1="-30" x2="869.5" y2="268.818" gradientUnits="userSpaceOnUse">
<stop stop-color="#F7DD43"/>
<stop offset="1" stop-color="#F7DD43" stop-opacity="0"/>
</linearGradient>
<linearGradient id="paint92_linear_122_130" x1="869.5" y1="-30" x2="869.5" y2="268.818" gradientUnits="userSpaceOnUse">
<stop stop-color="#F7DD43"/>
<stop offset="1" stop-color="#F7DD43" stop-opacity="0"/>
</linearGradient>
<linearGradient id="paint93_linear_122_130" x1="869.5" y1="-30" x2="869.5" y2="268.818" gradientUnits="userSpaceOnUse">
<stop stop-color="#F7DD43"/>
<stop offset="1" stop-color="#F7DD43" stop-opacity="0"/>
</linearGradient>
<clipPath id="clip0_122_130">
<rect width="1024" height="753" fill="white"/>
</clipPath>
</defs>
</svg>
